<svg width="25" height="24" viewBox="0 0 25 24" fill="none" xmlns="http://www.w3.org/2000/svg">
<path d="M12 18.25H9.75C8.65 18.25 7.75 19.15 7.75 20.25V20.5H6.75C6.34 20.5 6 20.84 6 21.25C6 21.66 6.34 22 6.75 22H18.75C19.16 22 19.5 21.66 19.5 21.25C19.5 20.84 19.16 20.5 18.75 20.5H17.75V20.25C17.75 19.15 16.85 18.25 15.75 18.25H13.5V15.96C13.25 15.99 13 16 12.75 16C12.5 16 12.25 15.99 12 15.96V18.25Z" fill="#7C3AED"/>
<path d="M19.23 11.64C19.89 11.39 20.47 10.98 20.93 10.52C21.86 9.49 22.47 8.26 22.47 6.82C22.47 5.38 21.34 4.25 19.9 4.25H19.34C18.69 2.92 17.33 2 15.75 2H9.75C8.17 2 6.81 2.92 6.16 4.25H5.6C4.16 4.25 3.03 5.38 3.03 6.82C3.03 8.26 3.64 9.49 4.57 10.52C5.03 10.98 5.61 11.39 6.27 11.64C7.31 14.2 9.81 16 12.75 16C15.69 16 18.19 14.2 19.23 11.64ZM15.59 8.45L14.97 9.21C14.87 9.32 14.8 9.54 14.81 9.69L14.87 10.67C14.91 11.27 14.48 11.58 13.92 11.36L13.01 11C12.87 10.95 12.63 10.95 12.49 11L11.58 11.36C11.02 11.58 10.59 11.27 10.63 10.67L10.69 9.69C10.7 9.54 10.63 9.32 10.53 9.21L9.91 8.45C9.52 7.99 9.69 7.48 10.27 7.33L11.22 7.09C11.37 7.05 11.55 6.91 11.63 6.78L12.16 5.96C12.49 5.45 13.01 5.45 13.34 5.96L13.87 6.78C13.95 6.91 14.13 7.05 14.28 7.09L15.23 7.33C15.81 7.48 15.98 7.99 15.59 8.45Z" fill="#7C3AED"/>
</svg>
