<svg width="25" height="24" viewBox="0 0 25 24" fill="none" xmlns="http://www.w3.org/2000/svg">
<path d="M18.72 16.83L19.11 19.99C19.21 20.82 18.32 21.4 17.61 20.97L13.42 18.48C12.96 18.48 12.51 18.45 12.07 18.39C12.81 17.52 13.25 16.42 13.25 15.23C13.25 12.39 10.79 10.09 7.74997 10.09C6.58997 10.09 5.51997 10.42 4.62997 11C4.59997 10.75 4.58997 10.5 4.58997 10.24C4.58997 5.68999 8.53997 2 13.42 2C18.3 2 22.25 5.68999 22.25 10.24C22.25 12.94 20.86 15.33 18.72 16.83Z" stroke="#4E4B66" stroke-width="1.5" stroke-linecap="round" stroke-linejoin="round"/>
<path d="M13.25 15.23C13.25 16.42 12.81 17.52 12.07 18.39C11.08 19.59 9.51 20.36 7.75 20.36L5.14 21.91C4.7 22.18 4.14 21.81 4.2 21.3L4.45 19.33C3.11 18.4 2.25 16.91 2.25 15.23C2.25 13.47 3.19 11.92 4.63 11C5.52 10.42 6.59 10.09 7.75 10.09C10.79 10.09 13.25 12.39 13.25 15.23Z" stroke="#4E4B66" stroke-width="1.5" stroke-linecap="round" stroke-linejoin="round"/>
</svg>
