<svg width="25" height="24" viewBox="0 0 25 24" fill="none" xmlns="http://www.w3.org/2000/svg">
<path d="M10.3 2.53001L4.27999 6.46001C2.34999 7.72001 2.34999 10.54 4.27999 11.8L10.3 15.73C11.38 16.44 13.16 16.44 14.24 15.73L20.23 11.8C22.15 10.54 22.15 7.73001 20.23 6.47001L14.24 2.54001C13.16 1.82001 11.38 1.82001 10.3 2.53001Z" stroke="#4E4B66" stroke-width="1.5" stroke-linecap="round" stroke-linejoin="round"/>
<path d="M5.88 13.08L5.87 17.77C5.87 19.04 6.85 20.4 8.05 20.8L11.24 21.86C11.79 22.04 12.7 22.04 13.26 21.86L16.45 20.8C17.65 20.4 18.63 19.04 18.63 17.77V13.13" stroke="#4E4B66" stroke-width="1.5" stroke-linecap="round" stroke-linejoin="round"/>
<path d="M21.65 15V9" stroke="#4E4B66" stroke-width="1.5" stroke-linecap="round" stroke-linejoin="round"/>
</svg>
